<?xml version="1.0" encoding="UTF-8" standalone="no"?>
<svg
   xmlns:dc="http://purl.org/dc/elements/1.1/"
   xmlns:cc="http://creativecommons.org/ns#"
   xmlns:rdf="http://www.w3.org/1999/02/22-rdf-syntax-ns#"
   xmlns:svg="http://www.w3.org/2000/svg"
   xmlns="http://www.w3.org/2000/svg"
   xmlns:sodipodi="http://sodipodi.sourceforge.net/DTD/sodipodi-0.dtd"
   xmlns:inkscape="http://www.inkscape.org/namespaces/inkscape"
   inkscape:version="1.0beta2 (2b71d25, 2019-12-03)"
   sodipodi:docname="UoLlogo-sized.svg"
   viewBox="0 0 700 178.69649"
   height="178.69649"
   width="700"
   xml:space="preserve"
   id="svg10"
   version="1.1"><metadata
     id="metadata16"><rdf:RDF><cc:Work
         rdf:about=""><dc:format>image/svg+xml</dc:format><dc:type
           rdf:resource="http://purl.org/dc/dcmitype/StillImage" /><dc:title></dc:title></cc:Work></rdf:RDF></metadata><defs
     id="defs14"><clipPath
       id="clipPath54"
       clipPathUnits="userSpaceOnUse"><path
         inkscape:connector-curvature="0"
         id="path52"
         d="m 347.813,715.578 c -1.176,0.184 -2.379,0.383 -3.555,0.52 -1.762,0.254 -3.543,0.472 -5.348,0.675 -51.414,4.829 -97.199,-11.621 -121.015,-22.519 l -7.872,-19.25 c 0,0 144.68,94.687 255.122,-26.602 0,0 -40.555,54.805 -117.332,67.176 z" /></clipPath><linearGradient
       id="linearGradient62"
       spreadMethod="pad"
       gradientTransform="matrix(255.122,0,0,-255.122,210.024,683.022)"
       gradientUnits="userSpaceOnUse"
       y2="0"
       x2="1"
       y1="0"
       x1="0"><stop
         id="stop56"
         offset="0"
         style="stop-opacity:1;stop-color:#ffffff" /><stop
         id="stop58"
         offset="0.938202"
         style="stop-opacity:1;stop-color:#645da5" /><stop
         id="stop60"
         offset="1"
         style="stop-opacity:1;stop-color:#645da5" /></linearGradient><clipPath
       id="clipPath72"
       clipPathUnits="userSpaceOnUse"><path
         inkscape:connector-curvature="0"
         id="path70"
         d="m 719.82,691.148 c -24.515,10.633 -75.074,28.969 -130.84,21.329 74.676,4.343 136.848,-36.993 136.848,-36.993 z" /></clipPath><linearGradient
       id="linearGradient80"
       spreadMethod="pad"
       gradientTransform="matrix(136.851,0,0,-136.851,588.979,694.887)"
       gradientUnits="userSpaceOnUse"
       y2="0"
       x2="1"
       y1="0"
       x1="0"><stop
         id="stop74"
         offset="0"
         style="stop-opacity:1;stop-color:#645da5" /><stop
         id="stop76"
         offset="0.0955056"
         style="stop-opacity:1;stop-color:#645da5" /><stop
         id="stop78"
         offset="1"
         style="stop-opacity:1;stop-color:#ffffff" /></linearGradient><clipPath
       id="clipPath90"
       clipPathUnits="userSpaceOnUse"><path
         inkscape:connector-curvature="0"
         id="path88"
         d="m 208.398,702.945 -7.871,-17.531 c 0,0 86.114,50.328 174.981,24.504 -70.68,23.367 -140.274,3.465 -167.11,-6.973 z" /></clipPath><linearGradient
       id="linearGradient98"
       spreadMethod="pad"
       gradientTransform="matrix(174.98,0,0,-174.98,200.527,703.119)"
       gradientUnits="userSpaceOnUse"
       y2="0"
       x2="1"
       y1="0"
       x1="0"><stop
         id="stop92"
         offset="0"
         style="stop-opacity:1;stop-color:#ffffff" /><stop
         id="stop94"
         offset="0.938202"
         style="stop-opacity:1;stop-color:#7970b2" /><stop
         id="stop96"
         offset="1"
         style="stop-opacity:1;stop-color:#7970b2" /></linearGradient><clipPath
       id="clipPath108"
       clipPathUnits="userSpaceOnUse"><path
         inkscape:connector-curvature="0"
         id="path106"
         d="m 537.09,699.203 c 98.539,40.824 198.551,-15.652 198.551,-15.652 l -6.524,15.613 c -27.523,11.133 -109.609,37.664 -192.027,0.039 z" /></clipPath><linearGradient
       id="linearGradient116"
       spreadMethod="pad"
       gradientTransform="matrix(198.55,0,0,-198.55,537.09,701.108)"
       gradientUnits="userSpaceOnUse"
       y2="0"
       x2="1"
       y1="0"
       x1="0"><stop
         id="stop110"
         offset="0"
         style="stop-opacity:1;stop-color:#7970b2" /><stop
         id="stop112"
         offset="0.0955056"
         style="stop-opacity:1;stop-color:#7970b2" /><stop
         id="stop114"
         offset="1"
         style="stop-opacity:1;stop-color:#ffffff" /></linearGradient><clipPath
       id="clipPath128"
       clipPathUnits="userSpaceOnUse"><path
         inkscape:connector-curvature="0"
         id="path126"
         d="m 196.469,695.133 c 0,0 153.648,77.105 269.015,-47.988 l 6.188,226.289 c 0,0 -109.453,80.265 -205.223,-4.461 z" /></clipPath><linearGradient
       id="linearGradient136"
       spreadMethod="pad"
       gradientTransform="matrix(275.2,0,0,-275.2,196.47,777.485)"
       gradientUnits="userSpaceOnUse"
       y2="0"
       x2="1"
       y1="0"
       x1="0"><stop
         id="stop130"
         offset="0"
         style="stop-opacity:1;stop-color:#ffffff" /><stop
         id="stop132"
         offset="0.731959"
         style="stop-opacity:1;stop-color:#ffffff" /><stop
         id="stop134"
         offset="1"
         style="stop-opacity:1;stop-color:#9087c0" /></linearGradient><clipPath
       id="clipPath146"
       clipPathUnits="userSpaceOnUse"><path
         inkscape:connector-curvature="0"
         id="path144"
         d="m 738.852,694.906 c 0,0 -154.911,77.739 -273.368,-47.761 l 6.188,226.289 c 0,0 117.894,84.004 200.789,-3.547 z" /></clipPath><linearGradient
       id="linearGradient154"
       spreadMethod="pad"
       gradientTransform="matrix(121.471,0,0,-121.471,429.497,778.442)"
       gradientUnits="userSpaceOnUse"
       y2="0"
       x2="1"
       y1="0"
       x1="0"><stop
         id="stop148"
         offset="0"
         style="stop-opacity:1;stop-color:#7970b2" /><stop
         id="stop150"
         offset="0.0955056"
         style="stop-opacity:1;stop-color:#7970b2" /><stop
         id="stop152"
         offset="1"
         style="stop-opacity:1;stop-color:#ffffff" /></linearGradient></defs><sodipodi:namedview
     fit-margin-bottom="0"
     fit-margin-right="0"
     fit-margin-left="0"
     fit-margin-top="0"
     inkscape:current-layer="g18"
     inkscape:window-maximized="0"
     inkscape:window-y="23"
     inkscape:window-x="0"
     inkscape:cy="73.484524"
     inkscape:cx="380.81008"
     inkscape:zoom="1.5622574"
     showgrid="false"
     id="namedview12"
     inkscape:window-height="749"
     inkscape:window-width="1602"
     inkscape:pageshadow="2"
     inkscape:pageopacity="0"
     guidetolerance="10"
     gridtolerance="10"
     objecttolerance="10"
     borderopacity="1"
     inkscape:document-rotation="0"
     bordercolor="#666666"
     pagecolor="#ffffff" /><g
     transform="matrix(1.3333333,0,0,-1.3333333,-1.3436172e-4,192.968)"
     inkscape:label="ink_ext_XXXXXX"
     inkscape:groupmode="layer"
     id="g18"><g
       transform="matrix(0.09260421,0,0,0.09260421,7.4528421e-6,10.703644)"
       id="g20"><path
         inkscape:connector-curvature="0"
         id="path22"
         style="fill:#222c77;fill-opacity:1;fill-rule:nonzero;stroke:none"
         d="m 941.391,1418.45 c 0,0 -177.922,28.81 -462.68,28.81 h 0.039 c -284.758,0 -462.6836,-28.82 -462.6836,-28.82 0,0 -96.4219,-707.897 183.1756,-1132.639 C 294.008,141.809 478.145,0.460938 478.723,0.0195313 h -0.039 L 478.711,0 478.73,0.0117188 478.75,0 l 0.027,0.0195313 h -0.039 C 479.313,0.460938 663.453,141.809 758.219,285.801 1037.81,710.551 941.391,1418.45 941.391,1418.45" /><path
         inkscape:connector-curvature="0"
         id="path24"
         style="fill:#231f20;fill-opacity:1;fill-rule:nonzero;stroke:none"
         d="m 78.2852,1253.98 c 0.7617,-3.28 2.0703,-5.52 2.0703,-5.52 5.7148,9.01 17.5742,9.98 26.0825,9.34 -6.122,1.11 -19.5278,2.56 -28.1528,-3.82" /><path
         inkscape:connector-curvature="0"
         id="path26"
         style="fill:#231f20;fill-opacity:1;fill-rule:nonzero;stroke:none"
         d="m 203.715,959.672 c -1,-0.078 -1.996,-0.227 -3.016,-0.406 -0.078,-0.008 -0.172,-0.028 -0.261,-0.047 -0.95,-0.184 -1.899,-0.387 -2.84,-0.637 -0.11,-0.019 -0.211,-0.047 -0.317,-0.078 -0.965,-0.246 -1.937,-0.535 -2.902,-0.844 -0.059,-0.008 -0.117,-0.039 -0.164,-0.047 -1,-0.328 -1.992,-0.675 -2.977,-1.05 -0.093,-0.04 -0.183,-0.079 -0.297,-0.11 -0.898,-0.344 -1.8,-0.703 -2.671,-1.078 -0.122,-0.059 -0.227,-0.098 -0.336,-0.145 -0.914,-0.39 -1.801,-0.808 -2.676,-1.203 -0.028,-0.019 -0.059,-0.039 -0.086,-0.058 -1.871,-0.867 -3.613,-1.762 -5.195,-2.621 -0.704,-1.676 -1.164,-3.418 -1.301,-5.239 0,0 17.285,11.684 31.523,12.938 23.879,2.168 38.043,0.238 67.02,-1.969 -33.68,3.586 -48.082,4.879 -73.504,2.594 z m 47.828,82.148 c -0.902,0 -1.781,-0.04 -2.648,-0.11 -0.133,-0.01 -0.278,-0.01 -0.403,-0.03 -0.851,-0.08 -1.676,-0.18 -2.469,-0.35 -0.511,-0.11 -1.046,-0.17 -1.57,-0.27 -14.359,-29.68 -4.109,-67.865 -4.109,-67.865 0.719,-0.144 1.414,-0.297 2.09,-0.453 19.929,-4.554 38.273,-14.398 41.433,-16.137 1.895,-0.14 3.824,-0.269 5.844,-0.402 0,0 -20.219,11.59 -42.926,16.379 0,0 -10.586,39.448 4.758,69.238 z m 142.047,162.7 30.859,-13.89 c -0.871,-2.05 -1.781,-4.1 -2.711,-6.15 -6.5,-14.28 -14.457,-28.63 -24.172,-41.62 -0.039,-0.05 -0.066,-0.1 -0.109,-0.15 l 5.082,-2.75 c 11.871,15.43 21.246,32.96 28.524,50.04 l -29.84,13.35 z m 53.207,60.27 c -0.692,-3.67 -1.774,-9.02 -3.297,-15.54 -0.059,-0.24 -0.121,-0.48 -0.18,-0.73 -0.234,-0.99 -0.484,-2.02 -0.742,-3.06 -0.156,-0.63 -0.308,-1.24 -0.465,-1.87 -0.125,-0.52 -0.265,-1.04 -0.402,-1.58 -0.203,-0.78 -0.406,-1.59 -0.617,-2.4 -0.11,-0.38 -0.199,-0.76 -0.309,-1.13 -0.305,-1.19 -0.644,-2.41 -0.98,-3.63 -0.098,-0.36 -0.196,-0.73 -0.293,-1.08 -0.336,-1.19 -0.684,-2.4 -1.039,-3.63 -0.051,-0.14 -0.082,-0.28 -0.121,-0.41 -0.418,-1.43 -0.852,-2.87 -1.297,-4.33 -0.059,-0.23 -0.129,-0.45 -0.2,-0.67 -0.933,-3.03 -1.929,-6.16 -3.007,-9.37 -0.032,-0.09 -0.063,-0.18 -0.094,-0.28 -1.699,-5 -3.555,-10.17 -5.617,-15.44 l 6.48,-0.96 c 14.801,37.78 19.625,71.11 19.625,71.11 -2.379,-1.76 -4.863,-3.41 -7.445,-5 z m -80.586,-108 23.633,-23.54 c -0.891,-1.02 -1.793,-2.02 -2.692,-3.03 -0.257,-0.26 -0.515,-0.53 -0.773,-0.81 -0.664,-0.7 -1.324,-1.41 -2,-2.12 -0.348,-0.34 -0.691,-0.68 -1.039,-1.04 -0.586,-0.59 -1.192,-1.18 -1.793,-1.78 -0.395,-0.4 -0.817,-0.79 -1.231,-1.17 -0.55,-0.53 -1.086,-1.05 -1.64,-1.56 -0.477,-0.42 -0.942,-0.83 -1.414,-1.26 -0.508,-0.46 -1.024,-0.92 -1.539,-1.35 -0.512,-0.46 -1.051,-0.89 -1.575,-1.33 -0.472,-0.4 -0.949,-0.79 -1.433,-1.19 -0.574,-0.45 -1.137,-0.92 -1.723,-1.38 -0.445,-0.34 -0.879,-0.68 -1.32,-1.02 -0.641,-0.46 -1.281,-0.94 -1.938,-1.42 -0.367,-0.28 -0.754,-0.54 -1.136,-0.82 -0.715,-0.5 -1.438,-1.01 -2.16,-1.5 -0.297,-0.2 -0.606,-0.4 -0.915,-0.59 -0.808,-0.54 -1.621,-1.07 -2.464,-1.59 -0.157,-0.11 -0.305,-0.2 -0.473,-0.29 -6.356,-3.9 -13.148,-7.17 -20.414,-9.66 -0.055,0 -0.094,-0.02 -0.133,-0.04 l 1.27,-2.39 c 22.285,6.18 40.414,19.69 55.093,36.58 l -17.293,17.29 z m -244.469,65.53 c 2.535,5.57 4.574,13.36 4.992,23.35 0,0 0,0 -0.011,0 l -0.106,9.92 c -0.019,0.37 -0.039,0.75 -0.062,1.15 h 0.05 l -0.007,1.08 c 0,0 -2.477,5.27 -5.778,2.64 0,0 1.973,-1.16 2.141,-4.79 0.168,-3.64 -0.328,-10.38 -0.328,-10.38 -0.703,-8.18 -2.543,-15.89 -5.031,-22.59 1.031,-1.35 2.863,-2.84 3.914,-3.99 0.593,-0.59 2.922,-3.59 1.586,-7.65 -1.637,-3.93 -4.192,-9.65 -5.637,-11.22 -0.395,-0.48 -0.692,-1.05 -0.949,-1.64 1.039,-1.64 1.953,-3.55 1.992,-3.72 0.855,0.07 1.058,3.74 2.648,5.58 1.426,1.62 3.996,7.3 5.598,11.25 1.367,4.05 -0.953,7.07 -1.543,7.66 -0.902,0.95 -2.406,2.18 -3.469,3.35 z m -9.765,-23.12 c -0.164,0.21 -0.332,0.41 -0.493,0.57 -0.211,0.33 -0.73,0.64 -1.386,0.99 -1.793,-3.95 -4.336,-6.4 -5.879,-7.3 -0.27,-0.14 -0.567,-0.27 -0.895,-0.39 -0.195,-0.08 -0.402,-0.14 -0.613,-0.21 -0.117,-0.03 -0.234,-0.07 -0.367,-0.11 -0.274,-0.07 -0.571,-0.16 -0.867,-0.22 -0.051,-0.01 -0.09,-0.03 -0.137,-0.04 -0.34,-0.07 -0.676,-0.13 -1.024,-0.19 1.735,-0.13 5.438,0.29 7.575,1.41 1.187,0.71 2.961,2.35 4.547,4.86 -0.059,0.08 -0.133,0.18 -0.192,0.26 -0.09,0.12 -0.176,0.26 -0.269,0.37 z m 88.406,-6.46 c 0.414,-0.18 0.847,-0.36 1.281,-0.57 0.191,-0.09 0.367,-0.17 0.547,-0.26 0.387,-0.19 0.781,-0.37 1.195,-0.56 0.578,-0.29 1.164,-0.6 1.766,-0.92 0.277,-0.15 0.586,-0.32 0.875,-0.47 0.453,-0.28 0.945,-0.53 1.441,-0.83 0.282,-0.15 0.543,-0.31 0.825,-0.47 0.757,-0.46 1.55,-0.92 2.367,-1.43 0,0 0.156,-0.12 0.441,-0.3 0.012,0 0.012,0 0.012,0 0.144,-0.1 0.328,-0.22 0.531,-0.36 h 0.016 c 2.769,-1.74 11.156,-6.4 21.367,-6.37 -9.293,1.69 -15.863,6.44 -15.863,6.44 -10.079,6.23 -16.211,8.15 -19.45,7.1 0.817,-0.26 1.704,-0.59 2.649,-1 z m -21.637,79.4 c -0.637,0.1 -7.219,1.64 -10.418,2.42 -3.265,0.74 -7.168,2.68 -11.922,2.68 -4.008,0 -21.683,-9.25 -21.683,-9.25 0.824,-0.31 12.179,3.68 14.507,4.15 2.407,0.36 2.184,0.1 3.512,0 0.172,-2.49 2.231,-3.13 5.367,-3.17 3.192,0 5.321,2.03 5.914,2.83 3.711,-1.2 9.336,-1.28 11.997,-0.92 2.101,0.29 3.32,0.92 2.726,1.26 z m 133.895,-134.03 11.191,-43.84 c -0.988,-0.16 -1.98,-0.31 -2.992,-0.43 -0.086,-0.02 -0.176,-0.02 -0.277,-0.04 -0.911,-0.11 -1.813,-0.22 -2.731,-0.32 -0.309,-0.03 -0.625,-0.06 -0.934,-0.08 -0.691,-0.08 -1.394,-0.14 -2.089,-0.2 -0.571,-0.04 -1.157,-0.07 -1.735,-0.11 -0.441,-0.02 -0.867,-0.05 -1.301,-0.06 -0.835,-0.05 -1.675,-0.08 -2.515,-0.1 -0.192,0 -0.375,-0.02 -0.559,-0.02 -3.09,-0.05 -6.242,0.02 -9.484,0.25 1.98,-0.25 3.945,-0.47 5.875,-0.61 8.93,-0.67 17.348,-0.28 25.265,0.99 l -5.554,21.8 z m -99.727,-97.86 c 1.899,-1.56 3.566,-3.04 5.02,-4.45 0.191,-0.16 0.379,-0.39 0.558,-0.58 0.918,-0.91 1.699,-1.76 2.446,-2.58 0.667,-0.74 1.324,-1.5 1.949,-2.3 0.164,-0.23 0.355,-0.45 0.515,-0.68 2.536,-3.38 4.563,-7.15 4.563,-10.65 v 12.41 c -2.527,2.91 -5.215,5.35 -6.91,6.78 z M 96.957,1192.02 c -0.2812,0.02 -0.5429,0.04 -0.7422,0.07 -0.164,0.03 -0.3554,0.03 -0.5507,0.01 -0.0821,0 -0.1719,-0.02 -0.2578,-0.04 -0.0977,0 -0.211,-0.02 -0.3282,-0.05 -0.1054,-0.03 -0.2187,-0.06 -0.3359,-0.09 -0.0781,-0.03 -0.1758,-0.06 -0.2695,-0.1 -0.1368,-0.04 -0.2774,-0.09 -0.4141,-0.14 l -0.0117,-0.02 c -0.0469,-0.59 -0.0977,-1.11 -0.0274,-1.39 1.375,0.52 2.7618,1.32 3.9688,1.77 -0.3477,-0.02 -0.6524,-0.02 -0.9297,-0.02 -0.043,0 -0.0703,0 -0.1016,0 z m 10.914,34.34 c 0.277,-0.1 0.543,-0.18 0.801,-0.26 0.348,-0.1 0.676,-0.2 0.98,-0.28 0.11,-0.03 0.219,-0.06 0.328,-0.09 0.348,-0.1 0.684,-0.18 0.961,-0.23 0.149,0.38 0.266,0.77 0.399,1.16 -3.727,1.18 -8.567,2.91 -10.379,2.65 -0.566,-0.1 -1.0587,-0.25 -1.5391,-0.46 2.3011,-0.45 5.5781,-1.6 8.2501,-2.44 0.07,-0.02 0.133,-0.04 0.199,-0.05" /><path
         inkscape:connector-curvature="0"
         id="path28"
         style="fill:#ffffff;fill-opacity:1;fill-rule:nonzero;stroke:none"
         d="m 447.738,1270.41 c -48.644,-36.23 -148.633,-34.51 -164.519,-38.73 -15.856,-4.13 -10.906,-15.27 -10.906,-15.27 -22.125,-57.68 -61.633,-29.18 -61.633,-29.18 -30.184,18.67 -24.825,-1.17 -12.91,-24.28 -47.196,5.86 -8.122,71.21 8.46,83.85 17.696,13.46 37.25,50.6 37.25,50.6 -5.683,-6.36 -22.683,-18.36 -68.761,-8.81 -20.403,4.17 -34.68,-8.57 -34.68,-8.57 -88.9101,7.87 -66.2187,-30.81 -66.2187,-30.81 9.5039,14.99 35.9027,7.88 35.9027,7.88 0.211,-5.46 2.8,-8.32 6.129,-9.9 -0.715,-6.25 -2.086,-14 -4.911,-21.69 -3.281,0.64 -11.2301,3.93 -13.6832,3.56 -6.9687,-1.08 -6.168,-11.22 -13.7773,-14.15 0.7226,-1.76 4.1992,-4.11 7.8515,-4.8 -3.3047,-3.75 -3.0742,-10.05 -3.0273,-10.81 0.1484,-2.85 2.082,-3.62 2.168,-4.94 0.1836,-1.83 -0.25,-3.64 -0.1368,-4.36 2.1407,0.8 4.336,2.34 5.8789,2.09 1.418,-0.25 5.6832,0.14 8.0042,1.37 1.543,0.9 4.086,3.35 5.879,7.3 0.656,-0.35 1.175,-0.66 1.386,-0.99 1.407,-1.41 3.286,-5.26 3.379,-5.55 0.801,0.07 1.032,3.71 2.602,5.62 1.445,1.57 4,7.29 5.637,11.22 1.336,4.06 -0.993,7.06 -1.586,7.65 -1.051,1.15 -2.883,2.64 -3.914,3.99 2.488,6.7 4.328,14.41 5.031,22.59 v 0 c 0,0 0.496,6.74 0.328,10.38 -0.168,3.63 -2.141,4.79 -2.141,4.79 3.301,2.63 5.778,-2.64 5.778,-2.64 l 0.125,-12.15 c 4.507,0.4 8.148,1.56 8.148,1.56 0,0 28.559,2.85 32.91,-4.22 4.422,-7.11 2.574,-25.72 -22.715,-71.8 -27.628,-50.44 1.793,-99.1 42.821,-120.29 13.777,-10.12 42.535,-35.58 38.851,-69.83 0,0 -52.617,-10.664 -54.535,-34.387 0,0 17.266,11.742 31.512,12.969 27.14,2.437 41.723,0.793 80.633,-3.344 0,0 -21.313,12.156 -44.004,16.867 0,0 -10.25,38.185 4.109,67.865 0.524,0.1 1.059,0.16 1.57,0.27 17.43,3.61 47.887,-13.4 47.887,-13.4 l -6.941,18.14 c 32.211,-4.74 47.965,-42.61 47.965,-42.61 -1.024,31.94 -22.063,64.06 -46.77,91.01 3.535,-0.56 7.012,-1.02 10.391,-1.27 8.949,-0.68 17.324,-0.19 25.277,1.07 l -11.191,43.84 22.14,-41.45 c 22.282,6.2 40.379,19.71 55.063,36.59 l -23.633,23.54 29.711,-16.14 c 11.906,15.41 21.23,32.91 28.527,49.98 l -30.859,13.89 34.402,-5.23 c 14.844,37.76 19.746,71.12 19.746,71.12 z m -219.773,-251.4 c 0,3.5 -2.027,7.27 -4.563,10.65 -0.16,0.23 -0.351,0.45 -0.515,0.68 -0.625,0.8 -1.282,1.56 -1.949,2.3 -0.747,0.82 -1.528,1.67 -2.446,2.58 -0.179,0.19 -0.367,0.42 -0.558,0.58 -1.454,1.41 -3.121,2.89 -5.02,4.45 l 15.051,-3.78 z m -63.942,252.79 c -0.593,-0.8 -2.722,-2.83 -5.914,-2.83 -3.136,0.04 -5.195,0.68 -5.367,3.17 -1.328,0.1 -1.105,0.36 -3.512,0 -2.328,-0.47 -13.683,-4.46 -14.507,-4.15 0,0 17.675,9.25 21.683,9.25 4.754,0 8.657,-1.94 11.922,-2.68 3.199,-0.78 9.781,-2.32 10.418,-2.42 0.594,-0.34 -0.625,-0.97 -2.726,-1.26 -2.661,-0.36 -8.286,-0.28 -11.997,0.92" /><path
         inkscape:connector-curvature="0"
         id="path30"
         style="fill:#231f20;fill-opacity:1;fill-rule:nonzero;stroke:none"
         d="m 286.969,1046.07 6.129,-15.99 c 4.476,-2.11 7.367,-3.73 7.367,-3.73 l -6.582,18.09 c -2.223,0.7 -4.508,1.28 -6.914,1.63 z m 6.914,47.61 c -1.895,0.21 -3.793,0.48 -5.719,0.79 1.223,-1.33 2.426,-2.67 3.637,-4.02 0.168,-0.22 0.355,-0.42 0.543,-0.63 1.148,-1.31 2.281,-2.62 3.41,-3.93 0.191,-0.25 0.402,-0.49 0.598,-0.73 1.152,-1.34 2.269,-2.71 3.378,-4.08 0.118,-0.15 0.25,-0.3 0.368,-0.45 1.168,-1.45 2.304,-2.87 3.437,-4.34 0.012,-0.02 0.02,-0.02 0.028,-0.05 1.128,-1.45 2.238,-2.92 3.316,-4.4 0.137,-0.18 0.269,-0.36 0.406,-0.54 1.039,-1.43 2.07,-2.87 3.07,-4.31 0.137,-0.21 0.29,-0.42 0.434,-0.62 1.012,-1.47 2.004,-2.97 2.981,-4.46 0.062,-0.09 0.132,-0.19 0.191,-0.31 0.973,-1.49 1.906,-2.99 2.84,-4.49 0.058,-0.1 0.109,-0.19 0.168,-0.29 0.89,-1.48 1.761,-2.96 2.605,-4.45 0.137,-0.26 0.285,-0.51 0.438,-0.77 0.801,-1.45 1.57,-2.87 2.312,-4.32 0.16,-0.3 0.309,-0.6 0.469,-0.91 0.723,-1.44 1.445,-2.89 2.117,-4.36 0.11,-0.23 0.207,-0.45 0.32,-0.68 0.59,-1.3 1.165,-2.6 1.719,-3.89 0.141,-0.33 0.278,-0.67 0.418,-1.01 0.555,-1.35 1.078,-2.7 1.574,-4.06 0.176,-0.47 0.344,-0.94 0.512,-1.42 0.469,-1.29 0.902,-2.58 1.309,-3.89 0.16,-0.52 0.308,-1.05 0.465,-1.56 0.316,-1.07 0.613,-2.14 0.89,-3.21 0.188,-0.72 0.367,-1.43 0.524,-2.12 0.23,-0.96 0.429,-1.9 0.625,-2.85 0.078,-0.4 0.191,-0.8 0.269,-1.21 5.367,-7.89 7.996,-14.3 7.996,-14.3 -0.972,31.48 -23.371,65.07 -47.648,91.87 z M 206.23,1246.8 c -16.582,-12.64 -55.656,-77.99 -8.46,-83.85 -37.235,11.94 -0.985,70.95 14.796,82.97 17.707,13.38 37.313,50.62 37.313,50.62 -1.543,-1.73 -6.024,-4.12 -10.34,-6.22 -6.594,-11.44 -20.445,-33.75 -33.309,-43.52" /><path
         inkscape:connector-curvature="0"
         id="path32"
         style="fill:#231f20;fill-opacity:1;fill-rule:nonzero;stroke:none"
         d="m 525.27,1253.98 c 0.75,-3.28 2.054,-5.52 2.054,-5.52 5.723,9.01 17.586,9.98 26.094,9.34 -6.133,1.11 -19.535,2.56 -28.148,-3.82" /><path
         inkscape:connector-curvature="0"
         id="path34"
         style="fill:#231f20;fill-opacity:1;fill-rule:nonzero;stroke:none"
         d="m 650.688,959.672 c -0.993,-0.078 -1.993,-0.227 -3.012,-0.406 -0.086,-0.008 -0.176,-0.028 -0.266,-0.047 -0.949,-0.184 -1.89,-0.387 -2.84,-0.637 -0.101,-0.019 -0.211,-0.047 -0.308,-0.078 -0.969,-0.246 -1.942,-0.535 -2.899,-0.844 -0.062,-0.008 -0.133,-0.039 -0.179,-0.047 -1.004,-0.328 -1.981,-0.675 -2.961,-1.05 -0.114,-0.04 -0.2,-0.079 -0.297,-0.11 -0.914,-0.344 -1.805,-0.703 -2.688,-1.078 -0.105,-0.059 -0.215,-0.098 -0.332,-0.145 -0.914,-0.39 -1.804,-0.808 -2.676,-1.203 -0.027,-0.019 -0.058,-0.039 -0.085,-0.058 -1.875,-0.867 -3.614,-1.762 -5.192,-2.621 -0.703,-1.676 -1.156,-3.418 -1.305,-5.239 0,0 17.286,11.684 31.524,12.938 23.883,2.168 38.043,0.238 67.023,-1.969 -33.672,3.586 -48.082,4.879 -73.507,2.594 z m 47.824,82.148 c -0.899,0 -1.782,-0.04 -2.633,-0.11 -0.141,-0.01 -0.277,-0.01 -0.414,-0.03 -0.848,-0.08 -1.676,-0.18 -2.457,-0.35 -0.52,-0.11 -1.059,-0.17 -1.578,-0.27 -14.364,-29.68 -4.117,-67.865 -4.117,-67.865 0.722,-0.144 1.417,-0.297 2.101,-0.453 19.922,-4.554 38.277,-14.398 41.426,-16.137 1.898,-0.14 3.832,-0.269 5.848,-0.402 0,0 -20.211,11.59 -42.918,16.379 0,0 -10.594,39.448 4.742,69.238 z m 142.054,162.7 30.856,-13.89 c -0.859,-2.05 -1.774,-4.1 -2.715,-6.15 -6.496,-14.28 -14.453,-28.63 -24.172,-41.62 -0.039,-0.05 -0.066,-0.1 -0.105,-0.15 l 5.078,-2.75 c 11.875,15.43 21.25,32.96 28.523,50.04 l -29.828,13.35 z m 53.204,60.27 c -0.696,-3.67 -1.762,-9.02 -3.301,-15.54 -0.059,-0.24 -0.117,-0.48 -0.176,-0.73 -0.23,-0.99 -0.473,-2.02 -0.742,-3.06 -0.153,-0.63 -0.297,-1.24 -0.465,-1.87 -0.133,-0.52 -0.258,-1.04 -0.41,-1.58 -0.184,-0.78 -0.406,-1.59 -0.61,-2.4 -0.101,-0.38 -0.199,-0.76 -0.308,-1.13 -0.309,-1.19 -0.633,-2.41 -0.981,-3.63 -0.097,-0.36 -0.199,-0.73 -0.297,-1.08 -0.335,-1.19 -0.683,-2.4 -1.042,-3.63 -0.04,-0.14 -0.079,-0.28 -0.118,-0.41 -0.414,-1.43 -0.84,-2.87 -1.297,-4.33 -0.058,-0.23 -0.128,-0.45 -0.195,-0.67 -0.933,-3.03 -1.933,-6.16 -3.012,-9.37 -0.031,-0.09 -0.058,-0.18 -0.089,-0.28 -1.696,-5 -3.555,-10.17 -5.614,-15.44 l 6.473,-0.96 c 14.805,37.78 19.629,71.11 19.629,71.11 -2.367,-1.76 -4.863,-3.41 -7.445,-5 z m -80.582,-108 23.628,-23.54 c -0.882,-1.02 -1.781,-2.02 -2.695,-3.03 -0.258,-0.26 -0.512,-0.53 -0.762,-0.81 -0.671,-0.7 -1.339,-1.41 -2.011,-2.12 -0.348,-0.34 -0.684,-0.68 -1.032,-1.04 -0.589,-0.59 -1.183,-1.18 -1.793,-1.78 -0.402,-0.4 -0.82,-0.79 -1.222,-1.17 -0.559,-0.53 -1.102,-1.05 -1.656,-1.56 -0.465,-0.42 -0.938,-0.83 -1.407,-1.26 -0.511,-0.46 -1.031,-0.92 -1.543,-1.35 -0.511,-0.46 -1.039,-0.89 -1.562,-1.33 -0.488,-0.4 -0.953,-0.79 -1.438,-1.19 -0.574,-0.45 -1.148,-0.92 -1.73,-1.38 -0.442,-0.34 -0.887,-0.68 -1.32,-1.02 -0.633,-0.46 -1.278,-0.94 -1.926,-1.42 -0.367,-0.28 -0.758,-0.54 -1.145,-0.82 -0.722,-0.5 -1.433,-1.01 -2.156,-1.5 -0.309,-0.2 -0.613,-0.4 -0.922,-0.59 -0.812,-0.54 -1.625,-1.07 -2.453,-1.59 -0.16,-0.11 -0.316,-0.2 -0.48,-0.29 -6.364,-3.9 -13.145,-7.17 -20.415,-9.66 -0.046,0 -0.085,-0.02 -0.128,-0.04 l 1.265,-2.39 c 22.289,6.18 40.422,19.69 55.094,36.58 l -17.301,17.29 z m -244.461,65.53 c 2.535,5.57 4.57,13.36 4.988,23.35 0,0 0,0 -0.008,0 l -0.113,9.92 c -0.031,0.37 -0.039,0.75 -0.071,1.15 h 0.063 l -0.012,1.08 c 0,0 -2.484,5.27 -5.781,2.64 0,0 1.977,-1.16 2.141,-4.79 0.164,-3.64 -0.329,-10.38 -0.329,-10.38 -0.695,-8.18 -2.542,-15.89 -5.031,-22.59 1.031,-1.35 2.864,-2.84 3.922,-3.99 0.586,-0.59 2.91,-3.59 1.57,-7.65 -1.628,-3.93 -4.183,-9.65 -5.628,-11.22 -0.391,-0.48 -0.684,-1.05 -0.942,-1.64 1.031,-1.64 1.938,-3.55 1.988,-3.72 0.864,0.07 1.047,3.74 2.645,5.58 1.437,1.62 3.988,7.3 5.598,11.25 1.375,4.05 -0.954,7.07 -1.547,7.66 -0.891,0.95 -2.395,2.18 -3.453,3.35 z m -9.778,-23.12 c -0.164,0.21 -0.336,0.41 -0.48,0.57 -0.223,0.33 -0.735,0.64 -1.391,0.99 -1.789,-3.95 -4.344,-6.4 -5.883,-7.3 -0.273,-0.14 -0.57,-0.27 -0.898,-0.39 -0.192,-0.08 -0.402,-0.14 -0.613,-0.21 -0.118,-0.03 -0.243,-0.07 -0.36,-0.11 -0.285,-0.07 -0.586,-0.16 -0.879,-0.22 -0.05,-0.01 -0.09,-0.03 -0.129,-0.04 -0.336,-0.07 -0.683,-0.13 -1.019,-0.19 1.723,-0.13 5.437,0.29 7.574,1.41 1.188,0.71 2.961,2.35 4.543,4.86 -0.066,0.08 -0.137,0.18 -0.195,0.26 -0.086,0.12 -0.18,0.26 -0.27,0.37 z m 88.41,-6.46 c 0.411,-0.18 0.844,-0.36 1.289,-0.57 0.18,-0.09 0.368,-0.17 0.547,-0.26 0.383,-0.19 0.77,-0.37 1.188,-0.56 0.574,-0.29 1.156,-0.6 1.769,-0.92 0.282,-0.15 0.578,-0.32 0.86,-0.47 0.468,-0.28 0.953,-0.53 1.445,-0.83 0.277,-0.15 0.547,-0.31 0.824,-0.47 0.766,-0.46 1.555,-0.92 2.375,-1.43 0,0 0.16,-0.12 0.442,-0.3 h 0.007 c 0.149,-0.1 0.329,-0.22 0.532,-0.36 0,0 0.011,0 0.019,0 2.774,-1.74 11.153,-6.4 21.36,-6.37 -9.289,1.69 -15.86,6.44 -15.86,6.44 -10.086,6.23 -16.211,8.15 -19.449,7.1 0.82,-0.26 1.703,-0.59 2.641,-1 z m -21.632,79.4 c -0.645,0.1 -7.231,1.64 -10.418,2.42 -3.278,0.74 -7.18,2.68 -11.93,2.68 -4.008,0 -21.684,-9.25 -21.684,-9.25 0.828,-0.31 12.188,3.68 14.504,4.15 2.418,0.36 2.199,0.1 3.528,0 0.156,-2.49 2.214,-3.13 5.367,-3.17 3.176,0 5.304,2.03 5.898,2.83 3.715,-1.2 9.352,-1.28 12.012,-0.92 2.09,0.29 3.305,0.92 2.723,1.26 z m 133.898,-134.03 11.176,-43.84 c -0.981,-0.16 -1.977,-0.31 -2.988,-0.43 -0.086,-0.02 -0.18,-0.02 -0.27,-0.04 -0.906,-0.11 -1.82,-0.22 -2.742,-0.32 -0.305,-0.03 -0.621,-0.06 -0.93,-0.08 -0.691,-0.08 -1.394,-0.14 -2.09,-0.2 -0.574,-0.04 -1.144,-0.07 -1.73,-0.11 -0.438,-0.02 -0.871,-0.05 -1.313,-0.06 -0.828,-0.05 -1.668,-0.08 -2.504,-0.1 -0.183,0 -0.375,-0.02 -0.558,-0.02 -3.094,-0.05 -6.242,0.02 -9.488,0.25 1.992,-0.25 3.941,-0.47 5.882,-0.61 8.922,-0.67 17.332,-0.28 25.258,0.99 l -5.555,21.8 z m -99.727,-97.86 c 1.899,-1.56 3.555,-3.04 5.008,-4.45 0.188,-0.16 0.375,-0.39 0.555,-0.58 0.93,-0.91 1.703,-1.76 2.453,-2.58 0.664,-0.74 1.32,-1.5 1.945,-2.3 0.164,-0.23 0.356,-0.45 0.524,-0.68 2.523,-3.38 4.555,-7.15 4.555,-10.65 v 12.41 c -2.516,2.91 -5.219,5.35 -6.915,6.78 z m -115.957,151.77 c -0.296,0.02 -0.558,0.04 -0.742,0.07 -0.179,0.03 -0.367,0.03 -0.558,0.01 -0.086,0 -0.164,-0.02 -0.254,-0.04 -0.114,0 -0.219,-0.02 -0.324,-0.05 -0.114,-0.03 -0.231,-0.06 -0.34,-0.09 -0.09,-0.03 -0.18,-0.06 -0.278,-0.1 -0.129,-0.04 -0.269,-0.09 -0.414,-0.14 0,0 0,-0.02 -0.011,-0.02 -0.047,-0.59 -0.102,-1.11 -0.028,-1.39 1.375,0.52 2.758,1.32 3.969,1.77 -0.348,-0.02 -0.645,-0.02 -0.934,-0.02 -0.027,0 -0.058,0 -0.086,0 z m 10.903,34.34 c 0.273,-0.1 0.543,-0.18 0.801,-0.26 0.347,-0.1 0.671,-0.2 0.992,-0.28 0.105,-0.03 0.215,-0.06 0.312,-0.09 0.348,-0.1 0.684,-0.18 0.973,-0.23 0.141,0.38 0.258,0.77 0.383,1.16 -3.711,1.18 -8.563,2.91 -10.375,2.65 -0.563,-0.1 -1.059,-0.25 -1.524,-0.46 2.293,-0.45 5.563,-1.6 8.246,-2.44 0.059,-0.02 0.129,-0.04 0.192,-0.05" /><path
         inkscape:connector-curvature="0"
         id="path36"
         style="fill:#ffffff;fill-opacity:1;fill-rule:nonzero;stroke:none"
         d="m 894.719,1270.41 c -48.656,-36.23 -148.629,-34.51 -164.531,-38.73 -15.852,-4.13 -10.907,-15.27 -10.907,-15.27 -22.129,-57.68 -61.625,-29.18 -61.625,-29.18 -30.183,18.67 -24.82,-1.17 -12.91,-24.28 -47.195,5.86 -8.129,71.21 8.469,83.85 17.683,13.46 37.25,50.6 37.25,50.6 -5.695,-6.36 -22.695,-18.36 -68.77,-8.81 -20.406,4.17 -34.683,-8.57 -34.683,-8.57 -88.914,7.87 -66.211,-30.81 -66.211,-30.81 9.496,14.99 35.894,7.88 35.894,7.88 0.215,-5.46 2.801,-8.32 6.137,-9.9 -0.715,-6.25 -2.102,-14 -4.91,-21.69 -3.289,0.64 -11.238,3.93 -13.684,3.56 -6.98,-1.08 -6.179,-11.22 -13.773,-14.15 0.711,-1.76 4.199,-4.11 7.84,-4.8 -3.305,-3.75 -3.067,-10.05 -3.028,-10.81 0.157,-2.85 2.09,-3.62 2.168,-4.94 0.188,-1.83 -0.25,-3.64 -0.14,-4.36 2.136,0.8 4.34,2.34 5.894,2.09 1.414,-0.25 5.672,0.14 7.996,1.37 1.539,0.9 4.094,3.35 5.883,7.3 0.656,-0.35 1.168,-0.66 1.391,-0.99 1.402,-1.41 3.273,-5.26 3.371,-5.55 0.801,0.07 1.019,3.71 2.598,5.62 1.445,1.57 4,7.29 5.628,11.22 1.34,4.06 -0.984,7.06 -1.57,7.65 -1.058,1.15 -2.891,2.64 -3.922,3.99 2.489,6.7 4.336,14.41 5.031,22.59 v 0 c 0,0 0.493,6.74 0.329,10.38 -0.164,3.63 -2.141,4.79 -2.141,4.79 3.297,2.63 5.781,-2.64 5.781,-2.64 l 0.133,-12.15 c 4.5,0.4 8.133,1.56 8.133,1.56 0,0 28.558,2.85 32.926,-4.22 4.406,-7.11 2.562,-25.72 -22.723,-71.8 -27.641,-50.44 1.801,-99.1 42.812,-120.29 13.782,-10.12 42.54,-35.58 38.852,-69.83 0,0 -52.613,-10.664 -54.535,-34.387 0,0 17.277,11.742 31.516,12.969 27.148,2.437 41.734,0.793 80.636,-3.344 0,0 -21.308,12.156 -44.011,16.867 0,0 -10.247,38.185 4.117,67.865 0.519,0.1 1.058,0.16 1.578,0.27 17.418,3.61 47.871,-13.4 47.871,-13.4 l -6.938,18.14 c 32.215,-4.74 47.957,-42.61 47.957,-42.61 -1.003,31.94 -22.058,64.06 -46.761,91.01 3.547,-0.56 7.011,-1.02 10.394,-1.27 8.949,-0.68 17.321,-0.19 25.27,1.07 l -11.176,43.84 22.129,-41.45 c 22.289,6.2 40.375,19.71 55.062,36.59 l -23.628,23.54 29.718,-16.14 c 11.891,15.41 21.215,32.91 28.516,49.98 l -30.856,13.89 34.411,-5.23 c 14.843,37.76 19.742,71.12 19.742,71.12 z m -219.781,-251.4 c 0,3.5 -2.032,7.27 -4.555,10.65 -0.168,0.23 -0.36,0.45 -0.524,0.68 -0.625,0.8 -1.281,1.56 -1.945,2.3 -0.75,0.82 -1.523,1.67 -2.453,2.58 -0.18,0.19 -0.367,0.42 -0.555,0.58 -1.453,1.41 -3.109,2.89 -5.008,4.45 l 15.04,-3.78 z m -63.946,252.79 c -0.594,-0.8 -2.722,-2.83 -5.898,-2.83 -3.153,0.04 -5.211,0.68 -5.367,3.17 -1.329,0.1 -1.11,0.36 -3.528,0 -2.316,-0.47 -13.676,-4.46 -14.504,-4.15 0,0 17.676,9.25 21.684,9.25 4.75,0 8.652,-1.94 11.93,-2.68 3.187,-0.78 9.773,-2.32 10.418,-2.42 0.582,-0.34 -0.633,-0.97 -2.723,-1.26 -2.66,-0.36 -8.297,-0.28 -12.012,0.92" /><path
         inkscape:connector-curvature="0"
         id="path38"
         style="fill:#231f20;fill-opacity:1;fill-rule:nonzero;stroke:none"
         d="m 733.941,1046.07 6.137,-15.99 c 4.469,-2.11 7.36,-3.73 7.36,-3.73 l -6.579,18.09 c -2.226,0.7 -4.515,1.28 -6.918,1.63 z m 6.911,47.61 c -1.883,0.21 -3.786,0.48 -5.715,0.79 1.215,-1.33 2.426,-2.67 3.633,-4.02 0.179,-0.22 0.355,-0.42 0.546,-0.63 1.149,-1.31 2.278,-2.62 3.403,-3.93 0.203,-0.25 0.41,-0.49 0.617,-0.73 1.137,-1.34 2.266,-2.71 3.367,-4.08 0.129,-0.15 0.246,-0.3 0.375,-0.45 1.16,-1.45 2.309,-2.87 3.426,-4.34 0.019,-0.02 0.027,-0.02 0.039,-0.05 1.133,-1.45 2.23,-2.92 3.309,-4.4 0.136,-0.18 0.265,-0.36 0.406,-0.54 1.051,-1.43 2.082,-2.87 3.078,-4.31 0.141,-0.21 0.277,-0.42 0.43,-0.62 1.004,-1.47 2.004,-2.97 2.976,-4.46 0.059,-0.09 0.125,-0.19 0.199,-0.31 0.969,-1.49 1.911,-2.99 2.832,-4.49 0.059,-0.1 0.118,-0.19 0.168,-0.29 0.899,-1.48 1.762,-2.96 2.602,-4.45 0.152,-0.26 0.289,-0.51 0.434,-0.77 0.804,-1.45 1.578,-2.87 2.332,-4.32 0.144,-0.3 0.296,-0.6 0.461,-0.91 0.722,-1.44 1.437,-2.89 2.121,-4.36 0.113,-0.23 0.211,-0.45 0.316,-0.68 0.598,-1.3 1.156,-2.6 1.715,-3.89 0.137,-0.33 0.277,-0.67 0.426,-1.01 0.554,-1.35 1.078,-2.7 1.566,-4.06 0.176,-0.47 0.348,-0.94 0.524,-1.42 0.453,-1.29 0.89,-2.58 1.304,-3.89 0.149,-0.52 0.309,-1.05 0.457,-1.56 0.317,-1.07 0.614,-2.14 0.887,-3.21 0.191,-0.72 0.371,-1.43 0.539,-2.12 0.219,-0.96 0.426,-1.9 0.613,-2.85 0.09,-0.4 0.196,-0.8 0.266,-1.21 5.371,-7.89 8.004,-14.3 8.004,-14.3 -0.985,31.48 -23.379,65.07 -47.656,91.87 z m -87.637,153.12 c -16.598,-12.64 -55.664,-77.99 -8.469,-83.85 -37.242,11.94 -0.98,70.95 14.797,82.97 17.699,13.38 37.309,50.62 37.309,50.62 -1.547,-1.73 -6.024,-4.12 -10.344,-6.22 -6.59,-11.44 -20.434,-33.75 -33.293,-43.52" /><path
         inkscape:connector-curvature="0"
         id="path40"
         style="fill:#231f20;fill-opacity:1;fill-rule:nonzero;stroke:none"
         d="m 266.047,526.762 c 0.961,-4.121 2.598,-6.942 2.598,-6.942 7.183,11.328 22.085,12.528 32.769,11.739 -7.703,1.406 -24.523,3.222 -35.367,-4.797" /><path
         inkscape:connector-curvature="0"
         id="path42"
         style="fill:#231f20;fill-opacity:1;fill-rule:nonzero;stroke:none"
         d="m 423.59,157.09 c -1.25,-0.078 -2.516,-0.281 -3.785,-0.5 -0.11,-0.02 -0.227,-0.02 -0.328,-0.059 -1.196,-0.25 -2.372,-0.48 -3.575,-0.801 -0.125,-0.019 -0.254,-0.05 -0.394,-0.089 -1.207,-0.321 -2.438,-0.672 -3.633,-1.082 -0.078,-0.008 -0.16,-0.028 -0.219,-0.047 -1.265,-0.41 -2.496,-0.852 -3.722,-1.313 -0.125,-0.058 -0.246,-0.097 -0.383,-0.14 -1.129,-0.43 -2.262,-0.887 -3.363,-1.36 -0.145,-0.07 -0.27,-0.117 -0.422,-0.179 -1.149,-0.5 -2.258,-1 -3.356,-1.52 -0.027,0 -0.082,-0.02 -0.121,-0.059 -2.344,-1.101 -4.531,-2.23 -6.516,-3.3 -0.878,-2.11 -1.453,-4.289 -1.64,-6.571 0,0 21.719,14.668 39.605,16.25 29.992,2.719 47.782,0.289 84.168,-2.492 -42.277,4.5 -60.383,6.141 -92.316,3.262 z m 60.07,103.18 c -1.133,0.019 -2.23,-0.04 -3.316,-0.122 -0.168,-0.039 -0.348,-0.039 -0.516,-0.058 -1.066,-0.102 -2.098,-0.231 -3.09,-0.43 -0.652,-0.129 -1.328,-0.191 -1.976,-0.328 -18.043,-37.293 -5.16,-85.23 -5.16,-85.23 0.89,-0.18 1.769,-0.403 2.621,-0.582 25.035,-5.711 48.086,-18.098 52.047,-20.282 2.371,-0.156 4.796,-0.34 7.339,-0.488 0,0 -25.394,14.551 -53.91,20.559 0,0 -13.308,49.562 5.961,86.961 z m 178.426,204.351 38.754,-17.449 c -1.09,-2.551 -2.242,-5.133 -3.406,-7.723 -8.161,-17.929 -18.161,-35.949 -30.36,-52.277 -0.047,-0.063 -0.078,-0.113 -0.14,-0.184 l 6.379,-3.429 c 14.917,19.351 26.691,41.402 35.843,62.863 l -37.484,16.734 z m 66.824,75.715 c -0.875,-4.617 -2.222,-11.348 -4.14,-19.539 -0.079,-0.274 -0.157,-0.586 -0.219,-0.899 -0.309,-1.23 -0.61,-2.519 -0.938,-3.839 -0.199,-0.782 -0.375,-1.551 -0.593,-2.371 -0.161,-0.625 -0.329,-1.282 -0.497,-1.954 -0.25,-1.015 -0.515,-2.004 -0.777,-3.031 -0.137,-0.465 -0.254,-0.933 -0.394,-1.422 -0.383,-1.484 -0.789,-3.027 -1.223,-4.562 -0.133,-0.457 -0.262,-0.899 -0.367,-1.317 -0.438,-1.535 -0.867,-3.047 -1.321,-4.582 -0.046,-0.183 -0.097,-0.34 -0.144,-0.515 -0.52,-1.797 -1.051,-3.606 -1.625,-5.469 -0.078,-0.258 -0.168,-0.527 -0.262,-0.805 -1.156,-3.816 -2.41,-7.75 -3.769,-11.765 -0.028,-0.125 -0.067,-0.262 -0.118,-0.379 -2.117,-6.274 -4.457,-12.754 -7.05,-19.367 l 8.14,-1.239 c 18.594,47.469 24.645,89.344 24.645,89.344 -2.985,-2.227 -6.11,-4.297 -9.348,-6.289 z M 627.695,404.68 657.383,375.109 c -1.117,-1.269 -2.262,-2.539 -3.399,-3.789 -0.308,-0.332 -0.644,-0.679 -0.961,-1.019 -0.832,-0.891 -1.671,-1.789 -2.527,-2.672 -0.422,-0.438 -0.855,-0.859 -1.293,-1.309 -0.73,-0.738 -1.484,-1.48 -2.25,-2.242 -0.504,-0.476 -1.019,-0.969 -1.531,-1.469 -0.715,-0.64 -1.391,-1.308 -2.082,-1.949 -0.59,-0.519 -1.176,-1.058 -1.762,-1.582 -0.644,-0.566 -1.285,-1.148 -1.937,-1.707 -0.649,-0.582 -1.321,-1.109 -1.973,-1.672 -0.602,-0.508 -1.188,-0.98 -1.805,-1.488 -0.722,-0.57 -1.433,-1.141 -2.175,-1.723 -0.547,-0.437 -1.11,-0.847 -1.657,-1.277 -0.801,-0.59 -1.601,-1.223 -2.414,-1.781 -0.476,-0.352 -0.949,-0.7 -1.433,-1.039 -0.895,-0.621 -1.801,-1.27 -2.723,-1.891 -0.379,-0.262 -0.754,-0.5 -1.141,-0.73 -1.027,-0.692 -2.05,-1.348 -3.097,-2.008 -0.203,-0.114 -0.387,-0.231 -0.598,-0.352 -7.988,-4.922 -16.516,-9.012 -25.645,-12.148 -0.058,0 -0.109,-0.043 -0.156,-0.051 l 1.582,-2.992 c 28.004,7.761 50.778,24.73 69.203,45.929 l -21.714,21.731 z m -307.05,82.289 c 3.168,7.019 5.742,16.797 6.253,29.336 0,0 0,0 -0.007,0 l -0.137,12.461 c -0.031,0.488 -0.051,0.945 -0.09,1.464 h 0.078 l -0.008,1.368 c 0,0 -3.121,6.609 -7.261,3.3 0,0 2.484,-1.464 2.695,-6.015 0.211,-4.57 -0.414,-13.047 -0.414,-13.047 -0.875,-10.273 -3.191,-19.965 -6.32,-28.383 1.289,-1.676 3.593,-3.543 4.921,-4.988 0.735,-0.75 3.665,-4.52 1.969,-9.61 -2.047,-4.929 -5.246,-12.117 -7.066,-14.113 -0.488,-0.586 -0.863,-1.304 -1.192,-2.066 1.309,-2.031 2.45,-4.438 2.504,-4.66 1.09,0.105 1.321,4.699 3.325,7.019 1.808,2.016 5.015,9.172 7.023,14.121 1.734,5.11 -1.188,8.871 -1.93,9.641 -1.125,1.191 -3.019,2.715 -4.343,4.172 z m -12.27,-29.024 c -0.215,0.274 -0.426,0.516 -0.625,0.723 -0.266,0.43 -0.918,0.82 -1.738,1.238 -2.262,-4.953 -5.449,-8.015 -7.391,-9.148 -0.336,-0.195 -0.723,-0.344 -1.117,-0.512 -0.258,-0.094 -0.516,-0.176 -0.77,-0.242 -0.164,-0.059 -0.308,-0.098 -0.461,-0.156 -0.355,-0.118 -0.73,-0.188 -1.097,-0.282 -0.071,0 -0.117,-0.019 -0.164,-0.019 -0.434,-0.117 -0.856,-0.207 -1.289,-0.266 2.168,-0.168 6.84,0.379 9.523,1.77 1.484,0.887 3.711,2.957 5.703,6.101 -0.086,0.129 -0.172,0.227 -0.25,0.34 -0.105,0.16 -0.219,0.332 -0.324,0.453 z m 111.035,-8.097 c 0.516,-0.243 1.059,-0.481 1.613,-0.735 0.227,-0.093 0.457,-0.191 0.688,-0.308 0.492,-0.227 0.965,-0.461 1.492,-0.727 0.723,-0.348 1.453,-0.738 2.227,-1.137 0.347,-0.211 0.722,-0.402 1.09,-0.621 0.574,-0.308 1.183,-0.648 1.808,-1.031 0.348,-0.18 0.676,-0.367 1.031,-0.57 0.961,-0.59 1.965,-1.168 2.989,-1.789 0,0 0.203,-0.168 0.547,-0.399 0.011,0 0.011,0 0.019,0 0.184,-0.133 0.399,-0.25 0.664,-0.429 0,0 0.012,0 0.02,0 3.488,-2.192 14,-8.051 26.832,-8.012 -11.66,2.121 -19.922,8.09 -19.922,8.09 -12.66,7.824 -20.367,10.238 -24.434,8.91 1.039,-0.332 2.141,-0.742 3.324,-1.242 0,0 0,0 0.012,0 z m -27.168,99.726 c -0.801,0.117 -9.082,2.063 -13.094,3.008 -4.105,0.949 -9.007,3.391 -14.968,3.391 -5.039,0 -27.242,-11.621 -27.242,-11.621 1.042,-0.383 15.296,4.617 18.214,5.222 3.036,0.418 2.758,0.117 4.422,0 0.211,-3.133 2.793,-3.933 6.742,-3.972 4,0 6.676,2.515 7.418,3.535 4.672,-1.504 11.735,-1.606 15.079,-1.145 2.636,0.363 4.152,1.145 3.429,1.582 z M 560.406,381.219 574.457,326.16 c -1.23,-0.199 -2.484,-0.398 -3.742,-0.539 -0.117,-0.039 -0.242,-0.039 -0.36,-0.062 -1.136,-0.129 -2.273,-0.289 -3.445,-0.399 -0.367,-0.039 -0.773,-0.058 -1.156,-0.109 -0.871,-0.082 -1.754,-0.172 -2.625,-0.231 -0.711,-0.07 -1.453,-0.09 -2.176,-0.129 -0.558,-0.043 -1.09,-0.089 -1.644,-0.109 -1.051,-0.043 -2.102,-0.082 -3.153,-0.102 -0.222,0 -0.465,-0.019 -0.711,-0.019 -3.875,-0.063 -7.832,0.019 -11.898,0.289 2.492,-0.309 4.949,-0.578 7.375,-0.75 11.207,-0.852 21.781,-0.352 31.723,1.25 l -6.969,27.379 z M 435.152,258.301 c 2.387,-1.949 4.465,-3.813 6.309,-5.59 0.227,-0.199 0.453,-0.473 0.691,-0.711 1.161,-1.129 2.141,-2.199 3.075,-3.262 0.836,-0.918 1.66,-1.867 2.445,-2.886 0.203,-0.27 0.441,-0.563 0.648,-0.852 3.18,-4.23 5.723,-8.969 5.723,-13.371 v 15.59 c -3.168,3.652 -6.555,6.703 -8.672,8.519 z m -145.64,190.64 c -0.367,0 -0.703,0.047 -0.938,0.079 -0.211,0.039 -0.461,0.039 -0.691,0.027 -0.113,0 -0.211,-0.027 -0.32,-0.051 -0.141,-0.008 -0.278,-0.055 -0.43,-0.074 -0.125,-0.039 -0.262,-0.059 -0.403,-0.117 -0.121,-0.039 -0.226,-0.063 -0.347,-0.102 -0.168,-0.066 -0.332,-0.125 -0.524,-0.215 0,0 0,0 -0.019,0 -0.059,-0.758 -0.117,-1.386 -0.039,-1.777 1.742,0.687 3.476,1.691 4.988,2.25 -0.422,-0.02 -0.801,-0.02 -1.164,-0.02 -0.047,0 -0.086,0 -0.113,0 z m 13.695,43.106 c 0.348,-0.102 0.684,-0.219 0.996,-0.313 0.449,-0.121 0.856,-0.238 1.25,-0.332 0.137,-0.058 0.277,-0.097 0.406,-0.129 0.434,-0.117 0.856,-0.214 1.207,-0.3 0.18,0.507 0.329,0.996 0.497,1.465 -4.672,1.492 -10.75,3.671 -13.043,3.339 -0.704,-0.129 -1.321,-0.324 -1.907,-0.566 2.879,-0.59 7,-2.023 10.356,-3.09 0.066,-0.016 0.156,-0.047 0.238,-0.074" /><path
         inkscape:connector-curvature="0"
         id="path44"
         style="fill:#ffffff;fill-opacity:1;fill-rule:nonzero;stroke:none"
         d="M 730.098,547.398 C 668.992,501.867 543.402,504.066 523.441,498.766 503.539,493.57 509.75,479.586 509.75,479.586 481.969,407.109 432.348,442.93 432.348,442.93 c -37.918,23.433 -31.188,-1.489 -16.215,-30.508 -59.281,7.359 -10.219,89.445 10.625,105.308 22.219,16.915 46.781,63.575 46.781,63.575 -7.137,-8.008 -28.496,-23.059 -86.367,-11.075 -25.625,5.235 -43.559,-10.773 -43.559,-10.773 -111.679,9.883 -83.16,-38.68 -83.16,-38.68 11.918,18.797 45.09,9.903 45.09,9.903 0.258,-6.887 3.516,-10.469 7.695,-12.442 -0.902,-7.851 -2.636,-17.597 -6.172,-27.265 -4.117,0.84 -14.105,4.937 -17.187,4.48 -8.762,-1.348 -7.754,-14.101 -17.297,-17.762 0.898,-2.218 5.273,-5.175 9.852,-6.035 -4.149,-4.718 -3.856,-12.621 -3.801,-13.578 0.183,-3.59 2.621,-4.547 2.719,-6.187 0.242,-2.305 -0.305,-4.571 -0.164,-5.469 2.679,0.976 5.433,2.906 7.386,2.598 1.781,-0.317 7.129,0.195 10.047,1.738 1.942,1.133 5.129,4.195 7.391,9.148 0.82,-0.418 1.472,-0.808 1.738,-1.238 1.762,-1.777 4.129,-6.602 4.246,-6.953 1,0.078 1.289,4.648 3.262,7.027 1.82,1.996 5.019,9.184 7.066,14.113 1.696,5.09 -1.234,8.86 -1.969,9.61 -1.328,1.445 -3.632,3.312 -4.921,4.988 3.129,8.418 5.445,18.11 6.32,28.383 v 0 c 0,0 0.625,8.477 0.414,13.047 -0.211,4.551 -2.695,6.015 -2.695,6.015 4.14,3.309 7.261,-3.3 7.261,-3.3 l 0.157,-15.293 c 5.664,0.515 10.238,1.972 10.238,1.972 0,0 35.863,3.575 41.34,-5.273 5.535,-8.938 3.215,-32.324 -28.535,-90.203 -34.707,-63.352 2.261,-124.469 53.773,-151.082 17.309,-12.731 53.426,-44.688 48.805,-87.719 0,0 -66.094,-13.391 -68.508,-43.199 0,0 21.695,14.738 39.586,16.289 34.101,3.058 52.418,1.012 101.277,-4.192 0,0 -26.762,15.282 -55.265,21.204 0,0 -12.883,47.937 5.16,85.23 0.648,0.137 1.324,0.199 1.976,0.328 21.883,4.52 60.133,-16.808 60.133,-16.808 l -8.711,22.769 c 40.461,-5.961 60.238,-53.531 60.238,-53.531 -1.281,40.129 -27.707,80.469 -58.734,114.332 4.441,-0.703 8.805,-1.301 13.047,-1.602 11.238,-0.859 21.766,-0.25 31.746,1.34 l -14.051,55.059 27.801,-52.071 c 27.992,7.801 50.731,24.774 69.176,45.961 l -29.688,29.571 37.321,-20.27 c 14.941,19.352 26.664,41.34 35.824,62.762 l -38.754,17.449 43.219,-6.558 c 18.636,47.429 24.793,89.335 24.793,89.335 z M 454.043,231.629 c 0,4.402 -2.543,9.141 -5.723,13.371 -0.207,0.289 -0.445,0.582 -0.648,0.852 -0.785,1.019 -1.609,1.968 -2.445,2.886 -0.934,1.063 -1.914,2.133 -3.075,3.262 -0.238,0.238 -0.464,0.512 -0.691,0.711 -1.844,1.777 -3.922,3.641 -6.309,5.59 l 18.891,-4.762 z m -80.309,317.508 c -0.742,-1.02 -3.418,-3.535 -7.418,-3.535 -3.949,0.039 -6.531,0.839 -6.742,3.972 -1.664,0.117 -1.386,0.418 -4.422,0 -2.918,-0.605 -17.172,-5.605 -18.214,-5.222 0,0 22.203,11.621 27.242,11.621 5.961,0 10.863,-2.442 14.968,-3.391 4.012,-0.945 12.293,-2.891 13.094,-3.008 0.723,-0.437 -0.793,-1.219 -3.429,-1.582 -3.344,-0.461 -10.407,-0.359 -15.079,1.145" /><path
         inkscape:connector-curvature="0"
         id="path46"
         style="fill:#231f20;fill-opacity:1;fill-rule:nonzero;stroke:none"
         d="m 528.16,265.621 7.707,-20.082 c 5.61,-2.66 9.238,-4.707 9.238,-4.707 l -8.265,22.738 c -2.793,0.879 -5.664,1.602 -8.68,2.051 z m 8.672,59.777 c -2.367,0.282 -4.742,0.622 -7.168,1.024 1.531,-1.692 3.047,-3.371 4.566,-5.082 0.211,-0.25 0.442,-0.508 0.68,-0.758 1.438,-1.652 2.863,-3.293 4.289,-4.961 0.235,-0.293 0.492,-0.609 0.762,-0.91 1.434,-1.68 2.844,-3.391 4.238,-5.109 0.149,-0.211 0.309,-0.391 0.453,-0.571 1.457,-1.832 2.903,-3.621 4.309,-5.441 0.019,-0.02 0.027,-0.059 0.047,-0.078 1.418,-1.821 2.793,-3.672 4.16,-5.532 0.168,-0.21 0.34,-0.46 0.504,-0.679 1.316,-1.801 2.605,-3.59 3.871,-5.422 0.172,-0.258 0.348,-0.52 0.527,-0.77 1.278,-1.859 2.528,-3.699 3.75,-5.597 0.071,-0.114 0.16,-0.223 0.243,-0.383 1.222,-1.859 2.406,-3.75 3.574,-5.66 0.054,-0.098 0.133,-0.219 0.207,-0.34 1.129,-1.867 2.219,-3.75 3.265,-5.609 0.176,-0.309 0.36,-0.641 0.543,-0.969 1.012,-1.813 1.985,-3.602 2.922,-5.43 0.199,-0.351 0.391,-0.75 0.586,-1.133 0.91,-1.808 1.813,-3.629 2.676,-5.468 0.125,-0.29 0.242,-0.571 0.375,-0.86 0.754,-1.621 1.465,-3.25 2.156,-4.89 0.188,-0.418 0.367,-0.848 0.535,-1.282 0.692,-1.679 1.356,-3.379 1.981,-5.09 0.215,-0.578 0.426,-1.16 0.656,-1.777 0.563,-1.641 1.106,-3.262 1.629,-4.891 0.199,-0.66 0.387,-1.3 0.586,-1.949 0.387,-1.351 0.773,-2.679 1.117,-4.019 0.231,-0.91 0.457,-1.782 0.664,-2.68 0.281,-1.203 0.535,-2.391 0.774,-3.57 0.109,-0.512 0.25,-1.024 0.347,-1.512 6.735,-9.918 10.039,-17.988 10.039,-17.988 -1.226,39.547 -29.355,81.738 -59.863,115.386 z M 426.758,517.73 c -20.844,-15.863 -69.906,-97.949 -10.625,-105.308 -46.774,15.019 -1.238,89.113 18.586,104.215 22.23,16.797 46.851,63.582 46.851,63.582 -1.953,-2.188 -7.55,-5.176 -12.98,-7.813 -8.285,-14.375 -25.684,-42.39 -41.832,-54.676" /><g
         id="g48"><g
           clip-path="url(#clipPath54)"
           id="g50"><path
             inkscape:connector-curvature="0"
             id="path64"
             style="fill:url(#linearGradient62);fill-opacity:1;fill-rule:nonzero;stroke:none"
             d="m 347.813,715.578 c -1.176,0.184 -2.379,0.383 -3.555,0.52 -1.762,0.254 -3.543,0.472 -5.348,0.675 -51.414,4.829 -97.199,-11.621 -121.015,-22.519 l -7.872,-19.25 c 0,0 144.68,94.687 255.122,-26.602 0,0 -40.555,54.805 -117.332,67.176" /></g></g><g
         id="g66"><g
           clip-path="url(#clipPath72)"
           id="g68"><path
             inkscape:connector-curvature="0"
             id="path82"
             style="fill:url(#linearGradient80);fill-opacity:1;fill-rule:nonzero;stroke:none"
             d="m 719.82,691.148 c -24.515,10.633 -75.074,28.969 -130.84,21.329 74.676,4.343 136.848,-36.993 136.848,-36.993 l -6.008,15.664" /></g></g><g
         id="g84"><g
           clip-path="url(#clipPath90)"
           id="g86"><path
             inkscape:connector-curvature="0"
             id="path100"
             style="fill:url(#linearGradient98);fill-opacity:1;fill-rule:nonzero;stroke:none"
             d="m 208.398,702.945 -7.871,-17.531 c 0,0 86.114,50.328 174.981,24.504 -70.68,23.367 -140.274,3.465 -167.11,-6.973" /></g></g><g
         id="g102"><g
           clip-path="url(#clipPath108)"
           id="g104"><path
             inkscape:connector-curvature="0"
             id="path118"
             style="fill:url(#linearGradient116);fill-opacity:1;fill-rule:nonzero;stroke:none"
             d="m 537.09,699.203 c 98.539,40.824 198.551,-15.652 198.551,-15.652 l -6.524,15.613 c -27.523,11.133 -109.609,37.664 -192.027,0.039" /></g></g><path
         inkscape:connector-curvature="0"
         id="path120"
         style="fill:#9d6907;fill-opacity:1;fill-rule:nonzero;stroke:none"
         d="m 465.215,649.066 c -92.164,101.211 -208.149,51.582 -244.043,32.383 l -3.684,-9.383 6.528,-4.336 c 0,0 122.293,86.708 226.847,-20.585 15.836,-16.262 17.559,-12.063 30.25,0 118.848,113.41 222.61,21.636 226.469,22.5 3.934,0.867 9.773,4.296 9.773,4.296 l -3,8.321 c -36.269,19.832 -152.16,70.539 -246.085,-28.965 l -3.055,-4.231" /><g
         id="g122"><g
           clip-path="url(#clipPath128)"
           id="g124"><path
             inkscape:connector-curvature="0"
             id="path138"
             style="fill:url(#linearGradient136);fill-opacity:1;fill-rule:nonzero;stroke:none"
             d="m 196.469,695.133 c 0,0 153.648,77.105 269.015,-47.988 l 6.188,226.289 c 0,0 -109.453,80.265 -205.223,-4.461 l -69.98,-173.84" /></g></g><g
         id="g140"><g
           clip-path="url(#clipPath146)"
           id="g142"><path
             inkscape:connector-curvature="0"
             id="path156"
             style="fill:url(#linearGradient154);fill-opacity:1;fill-rule:nonzero;stroke:none"
             d="m 738.852,694.906 c 0,0 -154.911,77.739 -273.368,-47.761 l 6.188,226.289 c 0,0 117.894,84.004 200.789,-3.547 l 66.391,-174.981" /></g></g><path
         inkscape:connector-curvature="0"
         id="path158"
         style="fill:#231f20;fill-opacity:1;fill-rule:nonzero;stroke:none"
         d="m 294.426,820.797 3.426,0.633 c 3.836,0.761 5.878,3.402 8.066,10.445 l 2.793,0.387 c -0.789,-3.864 -1.531,-7.746 -2.219,-11.621 -0.574,-3.766 -1.058,-7.411 -1.664,-11.196 l -2.832,-0.355 c 0.5,5.355 -0.394,9.289 -5.348,8.437 l -3.027,-0.461 -4.949,-15.351 c -1.664,-6.352 0.215,-6.485 7.891,-4.922 l -0.723,-3.289 c -4.961,-1.066 -10.762,-2.254 -16.762,-3.461 -5.183,-1.031 -8.18,-1.848 -16.476,-3.141 l 1.265,2.864 c 8.379,1.695 9.094,4.492 11.184,10.906 l 8.89,27.152 c 2.364,7.664 2.036,10.676 -4.554,10.281 l 0.847,2.719 c 5.336,0.328 12.657,1.223 19.516,2.543 8.496,1.625 16.387,3.785 24.703,6.321 l -1.285,-14.309 -3.922,-0.75 c 0.07,9.891 -3.328,8.207 -12.754,6.195 -6.164,-1.273 -7.367,-1.609 -8.957,-8.383 l -3.109,-11.644" /><path
         inkscape:connector-curvature="0"
         id="path160"
         style="fill:#231f20;fill-opacity:1;fill-rule:nonzero;stroke:none"
         d="m 337.219,836.172 c 1.355,6.812 2.238,9.496 -4.598,8.715 l 0.797,3.515 c 3.922,0.668 7.148,0.832 11.871,1.407 4.941,0.668 8.117,1.343 13.008,1.738 l -0.426,-3.516 c -6.695,-0.82 -8.433,-3.297 -9.375,-9.711 l -6.82,-27.101 c -1.516,-8.766 -2.024,-10.903 5.125,-10.942 l -0.539,-3.484 c -4.344,0 -8.727,0 -13.641,-0.059 -4.144,0 -10.433,-0.793 -14.601,-1.187 l 1.097,3.363 c 7.438,0.836 8.582,3.746 10.547,11.664 l 7.555,25.598" /><path
         inkscape:connector-curvature="0"
         id="path162"
         style="fill:#231f20;fill-opacity:1;fill-rule:nonzero;stroke:none"
         d="m 378.617,817.605 c 3.86,-0.375 7.297,-0.949 7.297,-0.949 l -4.066,20.625 -9.27,-19.258 c 0,0 2.789,-0.128 6.039,-0.418 z m -9.238,-7.031 c -1,-2.234 -1.652,-3.344 -3.117,-6.57 -2.016,-4.399 2.718,-5.012 5.394,-5.52 l -0.504,-3.39 c -3.043,0.336 -6.093,0.777 -9.14,1.027 -2.813,0.176 -5.594,0.215 -8.449,0.34 l 0.531,3.461 c 6.281,-0.031 9.492,7.496 12.078,13.187 7.711,16.618 17.769,38.899 17.769,38.899 l 6.039,-0.703 c 0,0 7.27,-35.789 8.418,-43.641 0.973,-6.769 1.375,-7.957 2.082,-11.203 0.454,-2.063 3.274,-4.43 4.969,-5.094 l -0.547,-3.461 c -4.441,1.36 -6.976,2.227 -11.589,3.305 -3.633,0.789 -7.903,1.609 -12.547,2.187 l 0.574,3.516 c 2.742,-0.394 7.051,-0.18 6.781,3.902 -0.078,1.473 -0.562,5.704 -0.781,7.071 l -0.754,3.515 c 0,0 -4.063,0.918 -8.379,1.395 -4.203,0.543 -7.516,0.57 -7.516,0.57 l -1.312,-2.793" /><path
         inkscape:connector-curvature="0"
         id="path164"
         style="fill:#231f20;fill-opacity:1;fill-rule:nonzero;stroke:none"
         d="m 444.867,813.191 -3.031,1.188 c 0.152,7.812 0.328,14.652 -4.207,16.965 -4.316,2.105 -5.18,-0.192 -5.832,-7.321 l -3.082,-29.625 c -0.879,-8.062 -0.117,-11.386 5.683,-14.812 l -0.406,-3.547 c -4.613,2.418 -8.633,4.277 -12.246,5.774 -3.93,1.585 -8.109,2.859 -12.715,4.523 l 0.664,3.297 c 7.09,-1.938 7.438,0.43 8.258,8.445 l 3.379,29.52 c 0.66,6.453 1.641,9.574 -3.23,11.297 -5.832,2.121 -6.477,-3.762 -8.329,-11.192 l -3.109,1.051 2.242,17.418 c 0,0 11.207,-2.438 20.434,-6.387 9.637,-4.047 16.965,-9.426 16.965,-9.426 l -1.438,-17.168" /><path
         inkscape:connector-curvature="0"
         id="path166"
         style="fill:#231f20;fill-opacity:1;fill-rule:nonzero;stroke:none"
         d="m 513.816,776.48 c 6.418,3.836 6.34,6.809 5.907,14.266 l -1.688,30.227 c -0.375,7.527 0.153,11.507 -7.137,8.754 l -0.218,3.574 c 4.535,2.269 7.211,3.476 10.586,4.762 4.515,1.722 9.285,3.23 14.297,4.457 l 0.207,-3.844 c -6.743,-2.117 -6.098,-5.992 -5.711,-13.504 l 1.472,-24.578 c 0.438,-9.227 1.457,-14.297 9.762,-11.531 10.547,3.39 14.648,7.671 16.035,18.785 l 3.027,0.433 0.36,-18.574 c -14.348,-3.082 -29.625,-8.758 -33.856,-10.402 -3.91,-1.789 -8.773,-4.02 -12.871,-6.274 l -0.172,3.449" /><path
         inkscape:connector-curvature="0"
         id="path168"
         style="fill:#231f20;fill-opacity:1;fill-rule:nonzero;stroke:none"
         d="m 555.566,844.273 c 6.032,0.532 10.118,0.5 13.809,0.645 4.32,0.254 8.352,0.215 13.773,0.176 l 0.309,-3.258 c -6.664,-0.109 -6.644,-4.625 -5.902,-12.09 l 1.515,-14.437 c 1.141,-11.653 5.141,-18.516 15.543,-18.039 11.164,0.433 10.875,6.308 9.7,17.359 l -1.598,12.406 c -0.375,3.285 -0.973,7.481 -2.641,10.246 -1.437,2.504 -3.359,3.653 -5.894,3.992 l -0.356,3.247 c 3.196,-0.207 5.903,-0.711 8.871,-1.11 2.793,-0.398 4.489,-0.316 7.989,-0.68 l 0.347,-3.261 c -2.199,-0.039 -4.078,-1.324 -4.82,-4.09 -0.953,-3.254 -0.09,-6.84 0.269,-10.387 l 1.086,-8.176 c 1.922,-16.539 3.555,-24.855 -15.613,-25.605 -12.359,-0.508 -24.941,4.375 -26.703,23.363 l -1.645,15.074 c -0.773,7.563 -0.773,11.434 -7.804,11.368 l -0.235,3.257" /><path
         inkscape:connector-curvature="0"
         id="path170"
         style="fill:#231f20;fill-opacity:1;fill-rule:nonzero;stroke:none"
         d="m 662.016,790.211 c 2.793,-3.652 5.129,-6.629 8.672,-7.238 l 0.503,-3.168 c -5.328,0.828 -7.832,1.472 -12.691,2.175 -3.832,0.665 -8.367,1.129 -12.637,1.95 l -0.375,3.179 c 0.617,-0.097 3.614,-0.207 4.258,0.161 0.684,0.316 1.137,1 1.078,2.109 -0.086,1.691 -2.89,5.59 -3.898,7.082 l -7.219,10.957 -3.812,-5.871 c -1.305,-1.914 -3.415,-5.547 -3.18,-8.149 0.269,-3.437 2.914,-4.132 5.437,-4.703 l 0.266,-3.289 c -3.922,0.746 -6.426,1.328 -9.625,1.961 -2.879,0.395 -5.59,0.942 -8.383,1.328 l -0.199,3.375 c 3.922,-0.504 6.355,2.801 8.465,6.125 l 8.664,13.246 -10.117,15.254 c -1.024,2.2 -2.457,3.985 -3.766,5.813 -1.793,2.547 -3.246,2.722 -5.019,3.875 l -0.145,3.332 c 3.492,-1.039 7.355,-1.965 11.348,-2.781 3.879,-0.696 7.668,-1.129 11.144,-1.555 l 0.336,-3.613 c -1.945,0.136 -4.641,0.675 -4.41,-2.078 0.191,-1.864 0.5,-2.622 1.879,-4.696 l 4.574,-6.851 3.285,4.582 c 1.207,1.578 1.942,2.648 2.942,4.343 1.433,2.188 -1.996,4.016 -5.129,4.442 l -0.27,3.484 c 2.934,-0.476 5.25,-0.711 7.778,-0.91 2.687,-0.137 4.343,-0.031 6.839,0 l 1.137,-3.402 c -3.769,0 -5.269,-2.457 -7.711,-6.242 l -6.605,-9.809 16.586,-24.418" /><path
         inkscape:connector-curvature="0"
         id="path172"
         style="fill:#222c77;fill-opacity:1;fill-rule:nonzero;stroke:none"
         d="m 1635.72,305.949 c -10.29,0 -37.18,-81.437 -219.87,-81.437 -66.42,0 -60.1,18.968 -60.1,65.617 v 384.379 c 0,68.797 57.75,49.015 57.75,67.219 0,9.488 -4.76,11.054 -15.05,11.054 -11.86,0 -30.83,-3.152 -75.92,-3.152 -38.75,0 -63.27,3.152 -79.87,3.152 -10.29,0 -15.83,-1.566 -15.83,-10.277 0,-15.801 66.44,-10.274 66.44,-51.395 v -400.98 c 0,-37.16 -1.59,-59.309 -22.14,-68.789 -25.32,-12.649 -33.21,-11.07 -34.79,-20.578 0,-6.313 4.74,-7.883 11.86,-7.883 31.61,0 64.84,2.371 96.47,3.152 60.12,1.59 120.22,-3.152 180.33,-3.152 34.79,0 52.19,-1.598 77.5,26.871 18.98,20.559 39.53,48.238 39.53,76.73 0,1.571 -0.78,9.469 -6.31,9.469" /><path
         inkscape:connector-curvature="0"
         id="path174"
         style="fill:#222c77;fill-opacity:1;fill-rule:nonzero;stroke:none"
         d="m 1794.79,260.09 v 424.68 c 0,59.328 56.95,41.132 56.95,60.121 0,6.324 -2.37,7.91 -15.01,7.91 -24.52,0 -49.05,-3.172 -73.57,-3.172 -29.24,0 -57.74,3.172 -86.99,3.172 -6.32,0 -7.9,-1.586 -7.9,-8.703 0,-17.403 63.26,-1.582 64.05,-59.328 V 279.859 c 0,-78.3 -61.68,-52.199 -61.68,-75.14 0,-7.91 2.38,-11.848 16.61,-11.848 11.07,0 27.69,3.16 75.91,3.16 34.01,0 68.03,-3.16 86.21,-3.16 13.44,0 15.82,2.379 15.82,7.91 0,23.707 -70.4,5.528 -70.4,59.309" /><path
         inkscape:connector-curvature="0"
         id="path176"
         style="fill:#222c77;fill-opacity:1;fill-rule:nonzero;stroke:none"
         d="m 2427.44,752.801 c -11.08,0 -22.94,-3.172 -60.9,-3.172 -17.41,0 -34.81,3.172 -52.21,3.172 -7.9,0 -11.86,-2.375 -11.86,-10.285 0,-18.192 50.61,-3.161 50.61,-39.543 3.17,-16.61 -6.31,-41.922 -11.07,-53.778 L 2204.41,309.91 c -3.97,-9.488 -6.32,-22.14 -14.24,-22.14 -8.69,0 -14.21,18.179 -31.63,60.109 l -138.4,325.836 c -3.16,7.101 -7.13,19.758 -7.13,30.832 0,28.48 33.24,29.262 32.45,40.336 0,4.746 -6.34,7.918 -11.08,7.918 -11.07,0 -41.14,-3.172 -62.5,-3.172 -23.72,0 -48.24,3.172 -72.75,3.172 -7.12,0 -11.06,-3.965 -11.06,-11.074 0,-17.403 41.12,-2.372 60.88,-49.836 l 195.37,-461.86 c 7.1,-16.601 16.59,-49.82 29.24,-49.82 11.87,0 17.41,26.098 26.11,45.879 l 196.91,465.801 c 22.16,52.992 44.29,33.226 44.29,50.625 0,7.113 -4.73,10.285 -13.43,10.285" /><path
         inkscape:connector-curvature="0"
         id="path178"
         style="fill:#222c77;fill-opacity:1;fill-rule:nonzero;stroke:none"
         d="m 2885.58,305.949 c -10.3,0 -37.17,-81.461 -219.87,-81.461 -66.43,0 -60.1,18.992 -60.1,65.641 V 435.66 c 0,11.856 -2.37,25.301 14.25,25.301 h 117.02 c 66.45,0 39.56,-69.59 64.07,-69.59 5.55,0 8.7,3.16 8.7,10.277 0,21.364 -1.58,41.922 -1.58,62.489 0,25.308 1.58,52.183 1.58,79.883 0,6.316 -2.38,15.007 -8.7,15.007 -18.98,0 2.38,-63.261 -79.87,-63.261 h -85.42 c -31.63,0 -30.05,0 -30.05,26.886 v 147.11 c 0,52.984 -1.58,49.828 74.33,49.828 31.65,0 113.9,4.734 134.43,-22.152 12.7,-18.204 0,-56.145 19.02,-56.145 4.73,0 15.8,6.32 15.8,94.094 0,9.496 -1.58,17.414 -7.92,17.414 -24.5,0 -97.26,-3.172 -113.09,-3.172 -33.2,0 -74.33,3.172 -223.79,3.172 -22.94,0 -27.69,-3.172 -27.69,-9.496 0,-9.477 17.4,-11.075 23.72,-12.653 42.72,-6.328 42.72,-44.289 42.72,-79.875 V 290.129 c 0,-37.168 -1.6,-59.309 -22.16,-68.789 -25.31,-12.649 -33.2,-11.07 -34.79,-20.578 0,-6.313 4.75,-7.883 11.87,-7.883 31.63,0 64.85,2.371 96.48,3.16 60.09,1.57 120.22,-3.16 180.31,-3.16 34.8,0 52.22,-1.598 77.5,26.871 18.99,20.578 39.53,48.238 39.53,76.73 0,1.571 -0.77,9.469 -6.3,9.469" /><path
         inkscape:connector-curvature="0"
         id="path180"
         style="fill:#222c77;fill-opacity:1;fill-rule:nonzero;stroke:none"
         d="m 4221.57,211.059 c -156.58,0 -252.28,141.562 -252.28,287.863 0,124.969 75.92,234.906 208.79,234.906 154.21,0 251.49,-140.008 251.49,-283.949 0,-146.289 -92.53,-238.82 -208,-238.82 z m -19.77,548.859 c -162.11,0 -290.23,-119.426 -290.23,-283.93 0,-166.867 105.17,-288.656 276.8,-288.656 176.35,0 298.94,114.68 298.94,292.606 0,163.73 -124.17,279.98 -285.51,279.98" /><path
         inkscape:connector-curvature="0"
         id="path182"
         style="fill:#222c77;fill-opacity:1;fill-rule:nonzero;stroke:none"
         d="m 4856.73,211.059 c -156.56,0 -252.27,141.562 -252.27,287.863 0,124.969 75.92,234.906 208.77,234.906 154.24,0 251.52,-140.008 251.52,-283.949 0,-146.289 -92.55,-238.82 -208.02,-238.82 z m -19.77,548.859 c -162.1,0 -290.23,-119.426 -290.23,-283.93 0,-166.867 105.17,-288.656 276.8,-288.656 176.36,0 298.94,114.68 298.94,292.606 0,163.73 -124.16,279.98 -285.51,279.98" /><path
         inkscape:connector-curvature="0"
         id="path184"
         style="fill:#222c77;fill-opacity:1;fill-rule:nonzero;stroke:none"
         d="m 5560.1,305.949 c -10.31,0 -37.18,-81.437 -219.87,-81.437 -66.43,0 -60.1,18.968 -60.1,65.617 v 384.379 c 0,68.797 57.72,49.015 57.72,67.219 0,9.488 -4.73,11.054 -15.01,11.054 -11.85,0 -30.84,-3.152 -75.93,-3.152 -38.76,0 -63.28,3.152 -79.89,3.152 -10.28,0 -15.82,-1.566 -15.82,-10.277 0,-15.801 66.43,-10.274 66.43,-51.395 v -400.98 c 0,-37.16 -1.59,-59.309 -22.14,-68.789 -25.3,-12.649 -33.21,-11.07 -34.81,-20.578 0,-6.313 4.76,-7.883 11.87,-7.883 31.66,0 64.86,2.371 96.5,3.152 60.1,1.59 120.23,-3.152 180.33,-3.152 34.78,0 52.17,-1.598 77.49,26.871 18.96,20.559 39.55,48.238 39.55,76.73 0,1.571 -0.8,9.469 -6.32,9.469" /><path
         inkscape:connector-curvature="0"
         id="path186"
         style="fill:#9d6907;fill-opacity:1;fill-rule:nonzero;stroke:none"
         d="m 1048.74,880.617 v -12.008 h 4620.55 v 12.008 H 1048.74" /><path
         inkscape:connector-curvature="0"
         id="path188"
         style="fill:#9d6907;fill-opacity:1;fill-rule:nonzero;stroke:none"
         d="m 2071.35,1271.9 h -34.49 V 994.723 h 34.49 V 1271.9" /><path
         inkscape:connector-curvature="0"
         id="path190"
         style="fill:#9d6907;fill-opacity:1;fill-rule:nonzero;stroke:none"
         d="m 2806.28,1025.47 h -147.09 v 95.57 h 144.21 v 30.76 h -144.21 v 89.33 h 147.09 v 30.75 H 2624.71 V 994.723 h 181.57 v 30.747" /><path
         inkscape:connector-curvature="0"
         id="path192"
         style="fill:#9d6907;fill-opacity:1;fill-rule:nonzero;stroke:none"
         d="m 2369.64,994.723 111.38,277.157 h -39.48 l -93.51,-239.36 -93.5,239.36 h -39.48 l 111.78,-277.157 h 42.81" /><path
         inkscape:connector-curvature="0"
         id="path194"
         style="fill:#9d6907;fill-opacity:1;fill-rule:nonzero;stroke:none"
         d="m 1669.53,1215.78 161.65,-221.057 h 33.25 v 277.157 h -34.49 v -216.5 l -159.58,216.5 h -35.33 V 994.723 h 34.5 v 221.057" /><path
         inkscape:connector-curvature="0"
         id="path196"
         style="fill:#9d6907;fill-opacity:1;fill-rule:nonzero;stroke:none"
         d="m 1349.15,989.73 c 75.23,0 113.45,44.04 113.45,113.03 v 169.12 h -34.92 v -168.7 c 0,-50.7 -27.42,-82.7 -78.53,-82.7 -51.12,0 -78.13,32 -78.13,82.7 v 168.7 h -34.9 v -169.53 c 0,-68.17 38.23,-112.62 113.03,-112.62" /><path
         inkscape:connector-curvature="0"
         id="path198"
         style="fill:#9d6907;fill-opacity:1;fill-rule:nonzero;stroke:none"
         d="m 5280.24,1121.04 h 144.18 v 30.76 h -144.18 v 89.33 h 147.09 v 30.75 H 5245.74 V 994.723 h 34.5 v 126.317" /><path
         inkscape:connector-curvature="0"
         id="path200"
         style="fill:#9d6907;fill-opacity:1;fill-rule:nonzero;stroke:none"
         d="m 4346.62,994.723 h 34.48 v 117.167 l 108.89,159.99 h -40.3 l -86.03,-128.82 -86.01,128.82 h -40.32 l 109.29,-159.99 V 994.723" /><path
         inkscape:connector-curvature="0"
         id="path202"
         style="fill:#9d6907;fill-opacity:1;fill-rule:nonzero;stroke:none"
         d="m 3971.04,994.723 h 34.48 v 246.407 h 88.1 v 30.75 h -210.27 v -30.75 h 87.69 V 994.723" /><path
         inkscape:connector-curvature="0"
         id="path204"
         style="fill:#9d6907;fill-opacity:1;fill-rule:nonzero;stroke:none"
         d="m 3013.21,1241.13 h 72.72 c 32.83,0 55.68,-21.19 55.68,-52.75 0,-31.2 -22.85,-53.22 -55.68,-53.22 h -72.72 z m 0,-136.31 h 55.69 l 70.22,-110.097 h 40.73 l -74.8,113.007 c 37.81,3.33 72.31,30.75 72.31,80.65 0,51.1 -36.57,83.5 -87.27,83.5 H 2978.72 V 994.723 h 34.49 v 110.097" /><path
         inkscape:connector-curvature="0"
         id="path206"
         style="fill:#9d6907;fill-opacity:1;fill-rule:nonzero;stroke:none"
         d="m 4946.14,1245.72 c 61.92,0 102.24,-47.81 102.24,-112.64 0,-64.4 -40.32,-112.6 -102.24,-112.6 -62.34,0 -101.81,48.2 -101.81,112.6 0,64.83 39.47,112.64 101.81,112.64 z m 0,-255.99 c 81.88,0 137.96,61.5 137.96,143.35 0,81.88 -56.08,143.39 -137.96,143.39 -81.85,0 -137.56,-61.51 -137.56,-143.39 0,-81.85 55.71,-143.35 137.56,-143.35" /><path
         inkscape:connector-curvature="0"
         id="path208"
         style="fill:#9d6907;fill-opacity:1;fill-rule:nonzero;stroke:none"
         d="m 3721.81,1271.9 h -34.5 V 994.723 h 34.5 V 1271.9" /><path
         inkscape:connector-curvature="0"
         id="path210"
         style="fill:#9d6907;fill-opacity:1;fill-rule:nonzero;stroke:none"
         d="m 3429.95,1020.48 c -39.05,0 -68.97,19.11 -86.83,39.88 l -20.79,-26.59 c 22.86,-25.76 58.6,-44.04 106.39,-44.04 74.8,0 102.23,41.54 102.23,81.45 0,103.47 -164.15,67.73 -164.15,130.06 0,26.18 24.1,44.04 56.92,44.04 30.35,0 59.43,-9.96 80.22,-33.23 l 20.78,25.35 c -23.28,24.52 -56.12,39.07 -98.08,39.07 -54.86,0 -95.58,-31.6 -95.58,-77.31 0,-98.89 164.15,-59.01 164.15,-130.48 0,-21.6 -15.8,-48.2 -65.26,-48.2" /><path
         inkscape:connector-curvature="0"
         id="path212"
         style="fill:#222c77;fill-opacity:1;fill-rule:nonzero;stroke:none"
         d="m 3593.54,701.391 c 0,23.726 17.39,23.726 42.7,23.726 90.96,0 164.51,-50.609 164.51,-146.312 0,-71.172 -47.46,-109.922 -128.12,-109.922 -28.48,0 -45.07,4.746 -51.41,4.746 -3.95,0 -7.9,-1.582 -7.9,-7.109 0,-14.258 45.85,-18.215 53.76,-18.215 168.46,0 192.18,120.226 192.18,151.867 0,117.832 -111.5,152.609 -211.95,152.609 -37.96,0 -50.6,-3.152 -90.15,-3.152 -45.88,0 -73.58,3.152 -80.69,3.152 -6.3,0 -10.27,-5.527 -10.27,-11.84 0,-28.488 64.86,19.762 64.86,-75.144 V 286.969 c 0,-87.778 -61.69,-63.25 -61.69,-84.61 0,-7.109 7.9,-9.48 12.66,-9.48 22.94,0 49.03,3.152 86.2,3.152 46.65,0 58.52,-3.152 85.41,-3.152 19.78,0 22.93,3.93 22.93,9.48 0,26.871 -83.03,-14.238 -83.03,99.653 v 399.379" /><path
         inkscape:connector-curvature="0"
         id="path214"
         style="fill:#222c77;fill-opacity:1;fill-rule:nonzero;stroke:none"
         d="m 3058.19,697.438 c 0,30.839 16.61,29.265 45.1,29.265 77.48,0 151.04,-32.422 151.04,-128.906 0,-98.074 -75.93,-112.313 -109.93,-112.313 -37.18,0 -86.21,-3.964 -86.21,11.075 z m 155.8,-218.274 c 55.36,22.141 99.65,75.129 99.65,136.824 0,152.614 -174.78,136.813 -187.44,136.813 -41.11,0 -86.19,-3.172 -132.07,-3.172 -40.31,0 -36.39,3.172 -50.62,3.172 -9.49,0 -15.8,-4.754 -15.8,-9.496 0,-26.899 68,5.531 68,-70.391 V 270.371 c 0,-60.101 -57.74,-49.031 -57.74,-68.812 0,-4.75 3.17,-8.68 7.91,-8.68 30.07,0 60.13,3.16 90.18,3.16 65.61,0 83.83,-3.16 90.92,-3.16 6.35,0 13.46,-1.598 13.46,6.301 0,26.91 -82.25,2.379 -82.25,70.39 v 166.891 c 0,7.898 -4.74,22.137 20.55,22.137 88.57,0 76.71,2.363 105.21,-41.926 l 87.77,-138.391 c 30.05,-45.082 60.91,-85.402 118.62,-85.402 7.13,0 51.43,0 51.43,9.48 0,18.981 -38.75,-10.289 -95.72,76.7 l -132.06,200.105" /></g></g></svg>
